<mxfile host="app.diagrams.net" modified="2023-06-12T15:27:14.679Z" agent="Mozilla/5.0 (Windows NT 10.0; Win64; x64) AppleWebKit/537.36 (KHTML, like Gecko) Chrome/114.0.0.0 Safari/537.36 Edg/114.0.1823.43" etag="fowz28iRRS9jsHI9YXdt" version="21.3.7" type="github">
  <diagram name="Page-1" id="jD52HSh-o02n1whh9zNw">
    <mxGraphModel dx="1122" dy="510" grid="1" gridSize="10" guides="1" tooltips="1" connect="1" arrows="1" fold="1" page="1" pageScale="1" pageWidth="827" pageHeight="1169" math="0" shadow="0">
      <root>
        <mxCell id="0" />
        <mxCell id="1" parent="0" />
        <mxCell id="wYQtXQGjKL9uaYI1V5P5-1" value="Utilisateur" style="shape=umlActor;verticalLabelPosition=bottom;verticalAlign=top;html=1;outlineConnect=0;" vertex="1" parent="1">
          <mxGeometry x="70" y="280" width="30" height="60" as="geometry" />
        </mxCell>
        <mxCell id="wYQtXQGjKL9uaYI1V5P5-3" value="" style="rounded=0;whiteSpace=wrap;html=1;" vertex="1" parent="1">
          <mxGeometry x="190" y="40" width="280" height="630" as="geometry" />
        </mxCell>
        <mxCell id="wYQtXQGjKL9uaYI1V5P5-4" value="" style="ellipse;whiteSpace=wrap;html=1;" vertex="1" parent="1">
          <mxGeometry x="285" y="150" width="90" height="60" as="geometry" />
        </mxCell>
        <mxCell id="wYQtXQGjKL9uaYI1V5P5-5" value="Ajouter nœud" style="text;html=1;strokeColor=none;fillColor=none;align=center;verticalAlign=middle;whiteSpace=wrap;rounded=0;" vertex="1" parent="1">
          <mxGeometry x="300" y="165" width="60" height="30" as="geometry" />
        </mxCell>
        <mxCell id="wYQtXQGjKL9uaYI1V5P5-6" value="" style="endArrow=none;html=1;rounded=0;entryX=0;entryY=0.5;entryDx=0;entryDy=0;" edge="1" parent="1" target="wYQtXQGjKL9uaYI1V5P5-4">
          <mxGeometry width="50" height="50" relative="1" as="geometry">
            <mxPoint x="120" y="290" as="sourcePoint" />
            <mxPoint x="480" y="310" as="targetPoint" />
          </mxGeometry>
        </mxCell>
        <mxCell id="wYQtXQGjKL9uaYI1V5P5-7" value="" style="ellipse;whiteSpace=wrap;html=1;" vertex="1" parent="1">
          <mxGeometry x="285" y="230" width="90" height="60" as="geometry" />
        </mxCell>
        <mxCell id="wYQtXQGjKL9uaYI1V5P5-10" value="Supprimer nœud" style="text;html=1;strokeColor=none;fillColor=none;align=center;verticalAlign=middle;whiteSpace=wrap;rounded=0;" vertex="1" parent="1">
          <mxGeometry x="300" y="245" width="60" height="30" as="geometry" />
        </mxCell>
        <mxCell id="wYQtXQGjKL9uaYI1V5P5-11" value="" style="ellipse;whiteSpace=wrap;html=1;" vertex="1" parent="1">
          <mxGeometry x="285" y="305" width="90" height="60" as="geometry" />
        </mxCell>
        <mxCell id="wYQtXQGjKL9uaYI1V5P5-12" value="Ajouter sommet" style="text;html=1;strokeColor=none;fillColor=none;align=center;verticalAlign=middle;whiteSpace=wrap;rounded=0;" vertex="1" parent="1">
          <mxGeometry x="300" y="320" width="60" height="30" as="geometry" />
        </mxCell>
        <mxCell id="wYQtXQGjKL9uaYI1V5P5-13" value="" style="ellipse;whiteSpace=wrap;html=1;" vertex="1" parent="1">
          <mxGeometry x="285" y="500" width="90" height="60" as="geometry" />
        </mxCell>
        <mxCell id="wYQtXQGjKL9uaYI1V5P5-14" value="Supprimer sommet" style="text;html=1;strokeColor=none;fillColor=none;align=center;verticalAlign=middle;whiteSpace=wrap;rounded=0;" vertex="1" parent="1">
          <mxGeometry x="300" y="515" width="60" height="30" as="geometry" />
        </mxCell>
        <mxCell id="wYQtXQGjKL9uaYI1V5P5-15" value="" style="ellipse;whiteSpace=wrap;html=1;" vertex="1" parent="1">
          <mxGeometry x="285" y="420" width="90" height="60" as="geometry" />
        </mxCell>
        <mxCell id="wYQtXQGjKL9uaYI1V5P5-16" value="Modifier nom sommet" style="text;html=1;strokeColor=none;fillColor=none;align=center;verticalAlign=middle;whiteSpace=wrap;rounded=0;" vertex="1" parent="1">
          <mxGeometry x="300" y="435" width="60" height="30" as="geometry" />
        </mxCell>
        <mxCell id="wYQtXQGjKL9uaYI1V5P5-17" value="" style="endArrow=none;html=1;rounded=0;exitX=0;exitY=0.5;exitDx=0;exitDy=0;" edge="1" parent="1" source="wYQtXQGjKL9uaYI1V5P5-7">
          <mxGeometry width="50" height="50" relative="1" as="geometry">
            <mxPoint x="320" y="430" as="sourcePoint" />
            <mxPoint x="120" y="310" as="targetPoint" />
          </mxGeometry>
        </mxCell>
        <mxCell id="wYQtXQGjKL9uaYI1V5P5-18" value="" style="endArrow=none;html=1;rounded=0;exitX=0;exitY=0.5;exitDx=0;exitDy=0;" edge="1" parent="1" source="wYQtXQGjKL9uaYI1V5P5-11">
          <mxGeometry width="50" height="50" relative="1" as="geometry">
            <mxPoint x="295" y="270" as="sourcePoint" />
            <mxPoint x="120" y="320" as="targetPoint" />
          </mxGeometry>
        </mxCell>
        <mxCell id="wYQtXQGjKL9uaYI1V5P5-19" value="" style="endArrow=none;html=1;rounded=0;exitX=0;exitY=0.5;exitDx=0;exitDy=0;" edge="1" parent="1" source="wYQtXQGjKL9uaYI1V5P5-15">
          <mxGeometry width="50" height="50" relative="1" as="geometry">
            <mxPoint x="295" y="345" as="sourcePoint" />
            <mxPoint x="120" y="330" as="targetPoint" />
          </mxGeometry>
        </mxCell>
        <mxCell id="wYQtXQGjKL9uaYI1V5P5-20" value="" style="endArrow=none;html=1;rounded=0;exitX=0;exitY=0.5;exitDx=0;exitDy=0;" edge="1" parent="1" source="wYQtXQGjKL9uaYI1V5P5-13">
          <mxGeometry width="50" height="50" relative="1" as="geometry">
            <mxPoint x="295" y="460" as="sourcePoint" />
            <mxPoint x="120" y="340" as="targetPoint" />
          </mxGeometry>
        </mxCell>
        <mxCell id="wYQtXQGjKL9uaYI1V5P5-23" value="" style="html=1;labelBackgroundColor=#ffffff;startArrow=none;startFill=0;startSize=6;endArrow=classic;endFill=1;endSize=6;jettySize=auto;orthogonalLoop=1;strokeWidth=1;dashed=1;fontSize=14;rounded=0;exitX=0.5;exitY=1;exitDx=0;exitDy=0;entryX=0.5;entryY=0;entryDx=0;entryDy=0;" edge="1" parent="1" source="wYQtXQGjKL9uaYI1V5P5-11" target="wYQtXQGjKL9uaYI1V5P5-15">
          <mxGeometry width="60" height="60" relative="1" as="geometry">
            <mxPoint x="310" y="420" as="sourcePoint" />
            <mxPoint x="370" y="360" as="targetPoint" />
          </mxGeometry>
        </mxCell>
        <mxCell id="wYQtXQGjKL9uaYI1V5P5-24" value="&amp;lt;&amp;lt;include&amp;gt;&amp;gt;" style="text;html=1;strokeColor=none;fillColor=none;align=center;verticalAlign=middle;whiteSpace=wrap;rounded=0;" vertex="1" parent="1">
          <mxGeometry x="340" y="370" width="60" height="30" as="geometry" />
        </mxCell>
        <mxCell id="wYQtXQGjKL9uaYI1V5P5-25" value="" style="ellipse;whiteSpace=wrap;html=1;" vertex="1" parent="1">
          <mxGeometry x="285" y="60" width="90" height="60" as="geometry" />
        </mxCell>
        <mxCell id="wYQtXQGjKL9uaYI1V5P5-26" value="Définir position nœud" style="text;html=1;strokeColor=none;fillColor=none;align=center;verticalAlign=middle;whiteSpace=wrap;rounded=0;" vertex="1" parent="1">
          <mxGeometry x="300" y="75" width="60" height="30" as="geometry" />
        </mxCell>
        <mxCell id="wYQtXQGjKL9uaYI1V5P5-27" value="" style="endArrow=none;html=1;rounded=0;entryX=0;entryY=0.5;entryDx=0;entryDy=0;" edge="1" parent="1" target="wYQtXQGjKL9uaYI1V5P5-25">
          <mxGeometry width="50" height="50" relative="1" as="geometry">
            <mxPoint x="120" y="270" as="sourcePoint" />
            <mxPoint x="295" y="190" as="targetPoint" />
          </mxGeometry>
        </mxCell>
        <mxCell id="wYQtXQGjKL9uaYI1V5P5-28" value="" style="html=1;labelBackgroundColor=#ffffff;startArrow=none;startFill=0;startSize=6;endArrow=classic;endFill=1;endSize=6;jettySize=auto;orthogonalLoop=1;strokeWidth=1;dashed=1;fontSize=14;rounded=0;exitX=0.5;exitY=0;exitDx=0;exitDy=0;entryX=0.5;entryY=1;entryDx=0;entryDy=0;" edge="1" parent="1" source="wYQtXQGjKL9uaYI1V5P5-4" target="wYQtXQGjKL9uaYI1V5P5-25">
          <mxGeometry width="60" height="60" relative="1" as="geometry">
            <mxPoint x="379" y="110" as="sourcePoint" />
            <mxPoint x="379" y="165" as="targetPoint" />
          </mxGeometry>
        </mxCell>
        <mxCell id="wYQtXQGjKL9uaYI1V5P5-29" value="&amp;lt;&amp;lt;include&amp;gt;&amp;gt;" style="text;html=1;strokeColor=none;fillColor=none;align=center;verticalAlign=middle;whiteSpace=wrap;rounded=0;" vertex="1" parent="1">
          <mxGeometry x="340" y="120" width="60" height="30" as="geometry" />
        </mxCell>
        <mxCell id="wYQtXQGjKL9uaYI1V5P5-30" value="" style="ellipse;whiteSpace=wrap;html=1;" vertex="1" parent="1">
          <mxGeometry x="285" y="580" width="90" height="60" as="geometry" />
        </mxCell>
        <mxCell id="wYQtXQGjKL9uaYI1V5P5-31" value="Trouver plus court chemin" style="text;html=1;strokeColor=none;fillColor=none;align=center;verticalAlign=middle;whiteSpace=wrap;rounded=0;" vertex="1" parent="1">
          <mxGeometry x="300" y="595" width="60" height="30" as="geometry" />
        </mxCell>
        <mxCell id="wYQtXQGjKL9uaYI1V5P5-32" value="" style="endArrow=none;html=1;rounded=0;exitX=0;exitY=0.5;exitDx=0;exitDy=0;" edge="1" parent="1" source="wYQtXQGjKL9uaYI1V5P5-30">
          <mxGeometry width="50" height="50" relative="1" as="geometry">
            <mxPoint x="290" y="610" as="sourcePoint" />
            <mxPoint x="120" y="360" as="targetPoint" />
          </mxGeometry>
        </mxCell>
      </root>
    </mxGraphModel>
  </diagram>
</mxfile>
